<?xml version="1.0" encoding="UTF-8" standalone="no"?>
<svg width="200px" height="200px" viewBox="0 0 200 200" version="1.1" xmlns="http://www.w3.org/2000/svg" xmlns:xlink="http://www.w3.org/1999/xlink" xmlns:sketch="http://www.bohemiancoding.com/sketch/ns">
    <g stroke="none" stroke-width="1" fill="none" fill-rule="evenodd" sketch:type="MSPage">
        <path d="M100,200 C155.228476,200 200,155.228476 200,100 C200,44.771526 155.228476,0 100,0 C44.771526,0 0,44.771526 0,100 C0,155.228476 44.771526,200 100,200 L100,200 L100,200 Z M117.969146,162.471628 C114.297046,162.269368 110.67213,161.479108 107.746092,160.242896 C103.847598,158.595844 100.625592,155.887994 98.4007458,152.388844 C96.0708659,148.7245 94.6822162,144.211326 94.1129916,138.453438 C93.8351364,135.642838 93.8520163,131.056276 94.150884,128.157756 C94.2700901,127.001638 94.5072803,125.250378 94.6779679,124.266058 C95.0129816,122.334134 95.7536962,119.231784 96.1749758,117.996124 C96.3187678,117.57437 96.4364141,117.17777 96.4364141,117.114786 C96.4364141,117.0518 96.2868539,116.83704 96.1040623,116.637544 C95.195494,115.645954 94.1603319,113.757094 93.5307661,111.942056 C92.71627,109.59386 92.3636683,107.8077 91.1595999,99.930426 C90.8963302,98.2080442 90.6719997,96.7668502 90.6610956,96.7277724 C90.6501762,96.6886903 90.4923382,97.3257357 90.3103083,98.1434282 C89.445444,102.028478 87.9516044,105.07711 85.4235661,108.116284 C79.976664,114.664482 72.36477,120.683022 64.759982,124.454488 C59.487412,127.069324 54.865784,128.331824 50.497128,128.350716 C48.741924,128.358256 48.078298,128.26828 47.005838,127.87714 C44.083276,126.811226 41.978956,123.886952 41.218978,119.835414 C40.8184,117.699866 40.845286,113.753492 41.282688,110.483502 C41.729184,107.145568 42.346814,104.430904 43.420166,101.088692 C44.526962,97.6423479 45.694788,94.9541798 46.0852,94.9541798 C46.130992,94.9541798 46.210816,95.0471559 46.262588,95.1607896 C46.39873,95.4596223 46.263188,96.1331518 45.482834,99.0295543 C44.445436,102.881064 43.793,105.933274 43.401254,108.767552 C43.137484,110.67594 43.139746,113.52664 43.405934,114.665518 C44.192736,118.031842 46.431514,119.595344 50.448954,119.584174 C56.74314,119.566674 63.424728,117.244544 70.680432,112.55287 C75.723104,109.29218 80.041996,105.758354 83.242104,102.274598 C84.660974,100.729962 85.200518,100.075026 86.7831297,97.9762383 C88.5142923,95.6804543 88.5039984,95.7097497 88.4932484,93.1095384 C88.484208,90.9225058 88.3153604,89.5866157 87.5972019,86.0202121 C85.9842481,78.010222 83.796506,71.785734 78.463976,60.034656 L77.626896,58.190014 L77.673622,57.374938 C77.753546,55.9807 78.600094,50.92263 78.907356,50.003446 C79.055402,49.560558 79.325798,49.22419 79.53377,49.22419 C80.064934,49.22419 82.762638,53.320718 84.647072,56.98885 C87.9008064,63.322392 90.2155042,70.55007 92.2307242,80.66892 C92.5032597,82.037388 92.7469202,83.09913 92.7721903,83.028348 C92.7974698,82.957564 93.1491898,81.915128 93.5538201,80.711818 C93.9584478,79.508512 94.5562436,77.809724 94.8822621,76.936734 C95.3300142,75.737764 95.4457099,75.342698 95.3552043,75.321744 C95.1825943,75.281778 95.197122,75.244728 95.5935979,74.713802 C97.6754219,71.926006 105.508798,65.883222 112.178478,61.919978 C116.196508,59.53239 120.244808,57.57579 123.888508,56.260348 C124.572666,56.013356 125.160332,55.78579 125.19442,55.754646 C125.228514,55.7235 124.75861,54.714364 124.150194,53.512122 C122.456512,50.165362 122.390482,49.941798 122.389676,47.551142 C122.388876,46.085434 122.416636,45.716332 122.577972,45.020118 C122.980154,43.284552 123.783812,41.77735 124.91562,40.636054 C126.260058,39.28033 127.633204,38.704734 129.749958,38.60959 C131.361438,38.537158 132.324234,38.750748 134.268828,39.612074 C136.290178,40.507394 139.404052,42.491336 142.075518,44.585952 C143.18997,45.459762 144.699662,46.989618 145.205406,47.757636 C145.691626,48.496 146.021752,49.339346 146.021752,49.843056 C146.021752,50.353324 145.088022,53.627868 144.40004,55.530296 L143.81053,57.160446 L140.56241,58.161164 C138.775946,58.711558 135.98244,59.583124 134.354618,60.097978 L131.39494,61.034074 L131.344786,62.529156 C131.317198,63.351448 131.24951,64.18328 131.194368,64.377672 C130.956906,65.214718 130.46335,65.420306 129.988852,64.879822 C129.632866,64.474332 129.428872,64.057108 129.0841,63.02937 C128.925098,62.555388 128.774748,62.147332 128.749998,62.122576 C128.661252,62.033814 125.84965,63.158176 123.073526,64.392608 C113.97745,68.43726 108.673304,71.426516 105.192052,74.470062 L104.235224,75.306584 L109.883326,75.306584 C116.125958,75.306584 121.449726,75.39827 129.850758,75.650464 C140.785922,75.978728 144.489088,76.03192 147.99737,75.911114 C153.646942,75.71657 153.66868,75.716318 154.084406,75.84123 C154.338494,75.917574 154.51236,76.033968 154.596646,76.18415 C154.717924,76.400252 154.66749,76.580446 153.576912,79.82717 C152.945882,81.70579 152.373182,83.358668 152.304232,83.500232 C152.12739,83.863364 151.779032,84.218266 151.416184,84.404968 C151.24543,84.492826 148.079866,85.3613082 144.381586,86.3349316 C135.60005,88.6467896 132.654312,89.5581382 128.22079,91.3347221 C120.006696,94.6262559 113.964248,98.7441863 108.36895,104.863776 C106.593344,106.805762 103.451984,110.750454 103.579518,110.878006 C103.684914,110.98341 106.064602,111.011342 107.040422,110.91863 C110.536236,110.586476 113.26568,109.690108 115.984318,107.981388 C117.502594,107.027118 118.928678,105.783724 122.773046,102.062322 C124.02353,100.851842 125.27827,99.6229299 125.561368,99.3314082 C126.201878,98.6718304 126.769434,98.3662763 127.35406,98.3662763 C127.71328,98.3662763 127.815984,98.4038299 127.980792,98.5954516 C128.23128,98.8867018 128.237032,99.3228444 128.00607,100.5126 C127.343876,103.923622 128.823598,107.324598 131.390254,108.290794 C132.175478,108.586386 133.112426,108.656414 137.74324,108.765624 C144.07124,108.91486 147.874468,109.313414 150.010894,110.051196 C151.032616,110.404038 152.549398,111.192666 153.613982,111.924572 C156.747438,114.078838 158.689726,117.09717 159.449908,120.993676 C160.120632,124.431604 159.83705,129.261632 158.71951,133.434292 C156.998546,139.859992 153.28182,145.798748 147.664754,151.0981 C141.592504,156.826884 135.134592,160.357872 128.049222,161.823258 C124.919592,162.470522 121.704196,162.677344 117.96916,162.471628 L117.96915,162.471628 L117.96915,162.471628 L117.969146,162.471628 L117.969146,162.471628 Z M124.74638,153.374088 C130.992392,152.856412 137.89509,150.18374 144.298572,145.803638 C146.759892,144.120046 148.95381,142.283142 151.041312,140.15813 C153.95275,137.194372 155.670144,134.811104 156.563796,132.49447 C157.087486,131.13688 157.214634,130.450656 157.202888,129.045262 C157.166214,124.657386 154.817646,121.4042 150.35403,119.558382 C148.799386,118.915494 147.918472,118.688386 145.807278,118.386202 C143.276962,118.024024 140.878128,117.867256 136.370624,117.769498 C132.347766,117.68225 131.654954,117.629056 130.522906,117.32049 C127.277934,116.436002 125.472052,113.815188 125.047374,109.374054 C124.91263,107.96494 124.860084,107.86539 124.289722,107.938622 C123.824624,107.99834 123.407328,108.319412 122.679014,109.177926 C121.49878,110.569136 119.3097,113.009376 118.40101,113.946754 C115.757934,116.673274 112.261966,118.764242 109.004322,119.567006 C107.48405,119.94164 106.468932,120.036436 104.590048,119.979246 C102.554724,119.917282 101.213962,119.697398 99.8563339,119.202916 L99.029756,118.90186 L98.5975758,120.11936 C98.0221098,121.74052 97.5875518,123.417322 97.3186604,125.05426 C97.1192919,126.267956 97.0977841,126.628692 97.0977944,128.758338 C97.0978139,133.709274 97.8615698,137.692238 99.5127462,141.352248 C102.575548,148.1413 108.62519,152.191912 117.228428,153.214016 C119.840914,153.524388 122.300948,153.576768 124.74638,153.374088 L124.74638,153.374088 L124.74638,153.374088 L124.74638,153.374088 L124.74638,153.374088 Z M111.582084,132.618102 C110.604896,131.909656 108.981872,130.787986 107.975366,130.125494 C106.968854,129.463002 106.12495,128.867798 106.100018,128.802824 C106.034128,128.6311 109.01334,122.484344 109.324202,122.150638 C109.54925,121.909058 109.769104,121.937146 110.412696,122.289742 C111.718238,123.004982 115.155112,125.373632 116.445922,126.447764 L116.767138,126.715058 L117.839976,124.50727 C118.430032,123.292978 118.91281,122.272066 118.91281,122.23858 C118.91281,122.205086 119.028866,122.017462 119.170716,121.821622 C119.518284,121.341764 119.721164,121.35497 120.67587,121.91955 C122.472668,122.982126 125.947434,125.436822 126.66427,126.149962 C126.969408,126.45353 126.991258,126.50694 126.945866,126.83811 C126.862806,127.444208 126.554612,128.228358 125.853976,129.616312 C125.144504,131.021758 124.069812,132.874544 123.776248,133.198352 C123.679986,133.304526 123.53721,133.391396 123.458954,133.391396 C123.380706,133.391396 122.672118,132.927334 121.884302,132.360154 C119.522892,130.660062 116.501452,128.64694 116.430876,128.726638 C116.394544,128.767664 116.119224,129.322454 115.819058,129.9595 C114.730108,132.270582 113.74616,133.90618 113.444802,133.90618 C113.397496,133.90618 112.559272,133.326544 111.582084,132.618102 L111.582084,132.618102 L111.582084,132.618102 L111.582084,132.618102 L111.582084,132.618102 Z M100.74604,107.400296 C105.879744,98.3166722 113.766886,90.807336 123.437482,85.7958084 L125.218212,84.872992 L124.6177,84.819298 C124.287416,84.789768 122.627422,84.76078 120.928824,84.75488 C118.069946,84.74496 112.655644,84.60972 106.730946,84.400282 C105.386222,84.352746 102.317166,84.29264 99.9108177,84.266716 C95.1822982,84.21577 93.7171098,84.142742 93.2151419,83.93298 C93.037836,83.85889 92.8821323,83.80891 92.8691322,83.821912 C92.856132,83.834912 92.9012802,84.13464 92.9694619,84.48797 C93.2906764,86.1524898 94.7864819,94.4696178 95.4072644,98.042884 C96.2154782,102.694998 96.4141157,103.641252 96.8751259,105.035372 C97.4455121,106.760234 98.1745661,108.07116 99.1321622,109.09379 L99.5581624,109.548722 L99.6808841,109.308284 C99.7483816,109.176044 100.227702,108.317446 100.74604,107.400296 L100.74604,107.400296 L100.74604,107.400296 L100.74604,107.400296 L100.74604,107.400296 Z M133.410946,52.632966 C135.20064,51.980404 136.413518,51.439494 136.413518,51.293894 C136.413518,51.016554 135.981988,50.522632 135.408032,50.143036 C134.18009,49.330908 131.51977,48.157766 129.638652,47.598864 C127.394358,46.932062 125.51847,46.906484 125.51847,47.542688 C125.51847,47.86164 126.276234,49.588772 127.506292,52.07342 L128.598268,54.279172 L130.597114,53.604648 C131.696484,53.23366 132.962704,52.796406 133.410946,52.632966 L133.410946,52.632966 L133.410946,52.632966 L133.410946,52.632966 L133.410946,52.632966 Z M137.124594,102.225506 C136.13662,101.50588 134.51175,100.376572 133.513752,99.7159324 C131.921652,98.6620037 131.698982,98.4871198 131.697214,98.2891963 C131.695414,98.0854416 134.246456,92.7104678 134.717088,91.9264858 C134.981512,91.4859996 135.212436,91.4447823 135.80312,91.7326361 C136.794406,92.2157182 140.883798,95.0289458 142.01117,96.0033598 C142.452428,96.384748 142.50445,96.4645461 142.50445,96.7599842 C142.50445,97.5755704 141.578258,99.6439159 140.116676,102.092276 C139.500728,103.124092 139.176982,103.533914 138.977834,103.533914 C138.94653,103.533914 138.11257,102.945132 137.124594,102.225506 L137.124594,102.225506 L137.124594,102.225506 L137.124594,102.225506 L137.124594,102.225506 Z" id="Majeedr" fill="#164161" sketch:type="MSShapeGroup"></path>
    </g>
</svg>
